<svg width="24" height="24" viewBox="0 0 24 24" fill="none" xmlns="http://www.w3.org/2000/svg">
<path d="M23 3H1V21H23V3Z" fill="#50F000"/>
<path d="M20.7974 5.25H15.8112V6.60178H17.681V11.3241H18.9276V6.60178H20.7974V5.25ZM16.1876 13.059C16.4465 12.8011 16.8182 12.6758 17.229 12.6758C18.0771 12.6758 18.5367 12.6758 19.3847 12.6758C19.7956 12.6758 20.1674 12.8011 20.4263 13.059C20.6578 13.2899 20.8001 13.6287 20.8001 14.0815V18.75H19.5536C19.5536 17.9616 19.5536 17.5197 19.5536 16.7312C18.5931 16.7312 18.0208 16.7312 17.0604 16.7312C17.0604 17.5197 17.0604 17.9616 17.0604 18.75H15.8138V14.0815C15.8138 13.6287 15.9561 13.2899 16.1876 13.059ZM17.0604 14.0251V15.3794C18.0208 15.3794 18.5931 15.3794 19.5536 15.3794V14.0251C18.5931 14.0251 18.0208 14.0251 17.0604 14.0251ZM3.34675 18.75H2.1001V17.3982H3.34675H4.59174V16.3847H8.33302V15.033H4.59174V14.0277H8.33302V12.6759H4.76209C4.35124 12.6759 3.97944 12.8012 3.72061 13.0592C3.48913 13.2899 3.34675 13.6288 3.34675 14.0816V17.3982V18.75ZM14.5671 14.0277V15.4753C14.5671 15.8316 14.4309 16.1465 14.2137 16.3718C13.9978 16.5957 13.7016 16.7312 13.3794 16.7312H13.3507L14.5671 18.3022V18.75H13.3382L11.7761 16.7312H10.8262C10.8262 17.4032 10.8262 18.078 10.8262 18.75H9.57967V12.6759H13.315C14.018 12.6759 14.5671 13.2913 14.5671 14.0277ZM10.8262 14.0277V15.3794H13.3206V14.0277H10.8262ZM14.5646 6.60178H10.8233V7.60713H14.5646V8.95891H10.8233V9.97471H14.5646V11.3241H10.9935C10.5828 11.3241 10.211 11.1987 9.95219 10.9408C9.72059 10.7102 9.57822 10.371 9.57822 9.9183V5.25H14.5646V6.60178ZM4.59329 7.55084V6.60178H7.08482V7.60713H4.59329V7.55084ZM7.91181 8.28706C8.12381 8.10009 8.33146 7.86805 8.33054 7.5514L8.33146 6.60043C8.32007 6.16547 8.17325 5.83947 7.94154 5.61768C7.68354 5.37047 7.43537 5.25023 7.0329 5.25023L3.34675 5.25V11.3241H7.03882C7.38822 11.323 7.62509 11.2038 7.89087 10.9752C8.15407 10.7491 8.33116 10.4144 8.33116 9.97987L8.33063 9.01677C8.33146 8.7054 8.13294 8.46505 7.91181 8.28706ZM4.59329 9.9183V8.9588H7.08482V9.97471H4.59329V9.9183ZM8.33302 17.3982H4.59174V18.75H8.33302V17.3982Z" fill="black"/>
</svg>
