<svg width="20px" height="24px" viewBox="0 0 20 24" version="1.1" xmlns="http://www.w3.org/2000/svg" xmlns:xlink="http://www.w3.org/1999/xlink">
    <g id="notification_center_closed_icon" stroke="none" stroke-width="1" fill="none" fill-rule="evenodd">
        <g id="notification_center_closed_icon_unloged-header-web" transform="translate(-1262.000000, -24.000000)" fill="#5C6871" fill-rule="nonzero">
            <g id="notification_center_closed_icon_24px" transform="translate(1258.000000, 22.000000)">
                <path d="M11.6666667,23.3333333 L16.3333333,23.3333333 C16.3333333,24.6166667 15.2833333,25.6666667 14,25.6666667 C12.7589583,25.6666667 11.75364,24.7023438 11.6720181,23.4924756 L11.6666667,23.3333333 L16.3333333,23.3333333 L11.6666667,23.3333333 Z" id="Path"></path>
                <path d="M14,2.91666667 C14.9199167,2.91666667 15.6713667,3.62212083 15.7442119,4.52289104 L15.75,4.66666667 L15.75,5.46 C19.0011111,6.23299145 20.9009446,9.09935569 20.9962344,12.5589984 L21,12.8333333 L21,18.6666667 L23.3333333,21 L23.3333333,22.1666667 L4.66666667,22.1666667 L4.66666667,21 L7,18.6666667 L7,12.8333333 C7,9.33213675 8.80539557,6.40689459 11.995297,5.52532499 L12.25,5.46 L12.25,4.66666667 C12.25,3.69833333 13.0316667,2.91666667 14,2.91666667 Z M14.0022481,7.10020435 L12.7111017,7.40612055 C10.4169368,7.94968576 9,10.0022794 9,12.8333333 L9,19.4950938 L8.32842712,20.1666667 L19.6715729,20.1666667 L19,19.4950938 L19,12.8333333 C19,10.0157138 17.5726771,7.94911754 15.2873721,7.40575833 L14.0022481,7.10020435 Z" id="Shape"></path>
            </g>
        </g>
    </g>
</svg>
