<svg width="24" height="24" viewBox="0 0 24 24" fill="none" xmlns="http://www.w3.org/2000/svg">
<path fill-rule="evenodd" clip-rule="evenodd" d="M16.0429 5.46963C15.5289 3.47433 13.7159 2 11.5582 2C9.40056 2 7.58758 3.47433 7.07354 5.46963H8.90492C9.35153 4.44845 10.3715 3.73481 11.5582 3.73481C12.745 3.73481 13.7649 4.44845 14.2115 5.46963H16.0429Z" fill="#9038CA"/>
<path fill-rule="evenodd" clip-rule="evenodd" d="M5.78552 6.38989C5.06328 6.38989 4.45162 6.92194 4.35224 7.63666L3.03646 17.0988C2.72221 19.3586 4.47928 21.3748 6.763 21.3748H16.3535C18.6373 21.3748 20.3943 19.3586 20.0801 17.0988L18.7643 7.63666C18.6649 6.92194 18.0533 6.38989 17.331 6.38989H5.78552ZM15.2686 14.1091L16.3112 15.1653L15.4391 16.0475H15.4379C15.3039 15.9121 15.1757 15.781 15.0485 15.651C14.8389 15.4365 14.6324 15.2254 14.409 15.0042C14.3398 14.9495 14.2527 14.9167 14.1578 14.9167C14.06 14.9167 13.9707 14.951 13.9009 15.0085C13.5161 15.3907 13.0645 15.8448 12.6879 16.2354C12.6374 16.303 12.6072 16.3876 12.6072 16.4782C12.6072 16.5845 12.648 16.6815 12.7148 16.7546L13.7273 17.7791L12.8548 18.6622H12.8535C12.7173 18.5245 12.5871 18.3916 12.458 18.2597C12.2587 18.0563 12.0622 17.8556 11.8505 17.6446C11.7786 17.5778 11.6811 17.5367 11.5752 17.5367C11.4693 17.5367 11.3726 17.5778 11.3002 17.6446H11.297L10.2916 18.6629H10.2904L9.41714 17.7795C9.54082 17.6545 9.659 17.5361 9.77533 17.4196L9.77699 17.4179C9.9977 17.1968 10.2116 16.9823 10.4439 16.7426C10.498 16.6738 10.5299 16.5867 10.5299 16.4928C10.5299 16.4163 10.5089 16.3447 10.4718 16.2833C10.1906 15.9922 9.86335 15.671 9.55461 15.3679L9.53576 15.3494C9.43395 15.2494 9.33429 15.1516 9.2391 15.0576H9.23551C9.1631 14.9907 9.06672 14.9495 8.96051 14.9495C8.85505 14.9495 8.75902 14.9903 8.68655 15.0565L7.67995 16.0762H7.67821C7.38758 15.7817 7.09673 15.4872 6.80622 15.1931C6.93697 15.0606 7.06362 14.9338 7.18911 14.8081L7.19359 14.8036C7.40146 14.5954 7.60612 14.3903 7.82071 14.1686V14.1664C7.88751 14.0939 7.92865 13.9976 7.92865 13.8911C7.92865 13.8067 7.90268 13.7285 7.85903 13.6639L6.80564 12.5981L7.67856 11.7149H7.68012C7.8081 11.8444 7.92992 11.9707 8.05053 12.0957L8.06033 12.1058L8.06306 12.1087C8.26789 12.321 8.4695 12.5299 8.69159 12.7451C8.7629 12.8076 8.8565 12.8457 8.9586 12.8457C9.05827 12.8457 9.14996 12.8092 9.22052 12.7493L9.45372 12.5153L9.45924 12.5097C9.7786 12.1894 10.124 11.843 10.4213 11.5366C10.476 11.4672 10.5091 11.3791 10.5091 11.2842C10.5091 11.1773 10.4684 11.0803 10.4016 11.0079L9.38976 9.98369L10.2629 9.10131H10.2642C10.3894 9.22801 10.51 9.35049 10.6292 9.47169L10.6308 9.47335C10.8408 9.6868 11.047 9.89643 11.2687 10.1184H11.2714C11.3435 10.1851 11.4405 10.2263 11.5466 10.2263C11.6484 10.2263 11.7416 10.1887 11.8129 10.1261L12.8259 9.10131H12.8274L13.6997 9.98404C13.569 10.1164 13.4421 10.2437 13.3164 10.3697L13.3151 10.371C13.0916 10.5951 12.8721 10.8152 12.6422 11.0532C12.5979 11.1184 12.5718 11.1972 12.5718 11.2822C12.5718 11.3641 12.5961 11.4406 12.6382 11.5048C12.8574 11.7324 13.1116 11.9726 13.3617 12.2089L13.362 12.2092C13.5396 12.3769 13.7151 12.5428 13.8746 12.7008H13.8823C13.9542 12.7681 14.0506 12.8087 14.1573 12.8087C14.263 12.8087 14.3596 12.7681 14.4322 12.7008H14.4361L15.4377 11.6878H15.4391L16.3112 12.571C16.1874 12.6962 16.0673 12.817 15.9484 12.9365L15.9365 12.9484C15.7193 13.1669 15.5059 13.3815 15.2807 13.6127C15.2243 13.6825 15.1901 13.7718 15.1901 13.8687C15.1901 13.9584 15.2192 14.0418 15.2686 14.1091ZM11.8309 12.4299H11.829C11.7566 12.3626 11.6596 12.322 11.554 12.322C11.4526 12.322 11.3595 12.3595 11.2885 12.4211C10.9059 12.7987 10.4588 13.2505 10.086 13.6381C10.0342 13.7063 10.0035 13.7918 10.0035 13.884C10.0035 13.9768 10.0344 14.0625 10.0866 14.1307C10.3152 14.3665 10.5773 14.6208 10.8336 14.8693L10.835 14.8707C10.9971 15.028 11.1567 15.1828 11.304 15.3293H11.3053C11.3774 15.3961 11.4742 15.4374 11.5803 15.4374C11.6615 15.4374 11.7369 15.4132 11.8006 15.3721C12.214 14.9758 12.6805 14.493 13.0761 14.0791C13.1108 14.0192 13.1306 13.9492 13.1306 13.8752C13.1306 13.7799 13.0974 13.6912 13.042 13.6219C12.8109 13.3818 12.5437 13.1232 12.2833 12.8712L12.28 12.868C12.1248 12.7178 11.9721 12.57 11.8309 12.4299Z" fill="#9038CA"/>
</svg>
