<svg width="16" height="18" viewBox="0 0 16 18" fill="none" xmlns="http://www.w3.org/2000/svg">
<path fill-rule="evenodd" clip-rule="evenodd" d="M8.26327 7.64889H8.26142C8.17652 7.57956 8.08997 7.54675 7.99582 7.54675C7.89791 7.54675 7.80842 7.58201 7.73967 7.64023C7.37023 7.99746 6.93874 8.42552 6.57886 8.7921C6.52901 8.85671 6.49927 8.9374 6.49927 9.02473C6.49927 9.11256 6.52914 9.19337 6.57944 9.25798C6.94001 9.62312 7.38727 10.0341 7.75448 10.3923H7.75576C7.82565 10.4555 7.91891 10.4945 8.02129 10.4945C8.09974 10.4945 8.17263 10.4718 8.23391 10.4328C8.63323 10.0583 9.08354 9.60091 9.4655 9.20918C9.49863 9.15252 9.51772 9.08665 9.51772 9.01657C9.51772 8.92579 9.48612 8.84241 9.43237 8.7766L8.26327 7.64889Z" fill="white"/>
<mask id="mask0_3015_10499" style="mask-type:alpha" maskUnits="userSpaceOnUse" x="0" y="0" width="16" height="18">
<path fill-rule="evenodd" clip-rule="evenodd" d="M0.5 0.812744H15.5V17.2333H0.5V0.812744Z" fill="white"/>
</mask>
<g mask="url(#mask0_3015_10499)">
<path fill-rule="evenodd" clip-rule="evenodd" d="M15.4925 5.98829C15.4902 5.94337 15.4874 5.89826 15.483 5.84349C15.4764 5.77906 15.4659 5.71048 15.4498 5.63501C15.4413 5.59674 15.4318 5.55828 15.4222 5.52177C15.4111 5.48005 15.3961 5.42653 15.381 5.38237C15.3484 5.28224 15.3097 5.18524 15.2661 5.09421C15.1833 4.9208 15.0799 4.75775 14.9579 4.60774C14.9044 4.54262 14.8422 4.47455 14.7781 4.41163C14.7179 4.3519 14.6607 4.30058 14.5984 4.24976C14.5768 4.23276 14.5517 4.21425 14.5209 4.19179L14.5071 4.18194C14.4837 4.16588 14.4566 4.14788 14.4295 4.13088L14.3116 4.05365L9.20957 1.13076L9.10764 1.07969C9.06296 1.05648 9.01879 1.03452 8.97462 1.01457C8.90287 0.982199 8.83355 0.955347 8.76404 0.933389L8.74923 0.928934C8.72013 0.920026 8.693 0.911932 8.65438 0.90133L8.64028 0.897628C8.60619 0.888719 8.56853 0.87887 8.53636 0.871968C8.4567 0.853461 8.36594 0.838153 8.26528 0.826045C8.17936 0.817199 8.09134 0.812744 8.00389 0.812744C7.78738 0.812744 7.5726 0.840349 7.36132 0.896373C7.26883 0.921531 7.1976 0.944242 7.13192 0.969651C7.09847 0.982199 7.06566 0.99575 7.03496 1.00987L7.02098 1.01677C7.00043 1.02542 6.97732 1.03571 6.94317 1.05303L6.80651 1.12185L1.68155 4.05879L1.58268 4.12247C1.54815 4.14493 1.51362 4.16764 1.48745 4.18665C1.42528 4.22956 1.36655 4.27643 1.31989 4.31909C1.29506 4.3408 1.26494 4.36922 1.24145 4.39237C1.19536 4.43628 1.15962 4.47355 1.1316 4.50485C1.06623 4.57669 1.00649 4.6499 0.957085 4.71879C0.879021 4.82532 0.807979 4.94377 0.74734 5.06761C0.679234 5.20551 0.62383 5.35131 0.582468 5.50351C0.55483 5.60741 0.537532 5.68758 0.526106 5.77071C0.521574 5.80396 0.518064 5.83583 0.515574 5.86789L0.515064 5.87404C0.51366 5.88791 0.512191 5.9034 0.510915 5.92216L0.5 6.10918L0.502745 11.9741L0.507277 12.0629C0.509511 12.1073 0.512511 12.1513 0.516596 12.1962L0.517809 12.207C0.525723 12.281 0.536383 12.3471 0.548447 12.4034C0.555213 12.4355 0.563638 12.4695 0.572511 12.5055L0.579085 12.5316C0.587128 12.5607 0.598106 12.5998 0.611447 12.6422C0.640426 12.733 0.673298 12.8188 0.707574 12.8948C0.765787 13.0256 0.835809 13.1514 0.916553 13.2703C1.00464 13.3985 1.10428 13.5184 1.21266 13.6265C1.2837 13.6966 1.34511 13.7518 1.40268 13.7977C1.42304 13.814 1.44762 13.8322 1.48189 13.8565L1.508 13.8747C1.52294 13.8846 1.54023 13.8964 1.55817 13.9078L1.68596 13.9917L6.84468 16.9422L6.86766 16.955C6.90966 16.9767 6.9516 16.9974 6.99538 17.0187L7.01109 17.026C7.03879 17.0379 7.07243 17.0532 7.1076 17.067C7.15764 17.0878 7.21553 17.1075 7.28428 17.1272C7.33126 17.142 7.37115 17.1529 7.41079 17.1617C7.45247 17.1726 7.49428 17.1805 7.5433 17.1889L7.67345 17.2106L7.72655 17.2175C7.76721 17.221 7.80775 17.2234 7.8484 17.2259L8.02336 17.2333L8.10443 17.2284C8.14975 17.2264 8.19455 17.2239 8.24121 17.221L8.26394 17.219C8.29853 17.2155 8.33855 17.2116 8.37915 17.2051C8.47617 17.1908 8.56145 17.1696 8.62796 17.1524C8.72913 17.1252 8.79813 17.1035 8.86215 17.0789C8.89279 17.0675 8.92789 17.0537 8.96613 17.0359L9.18494 16.9289L14.3241 13.9843L14.3883 13.9433C14.4312 13.9156 14.4729 13.888 14.5171 13.857C14.5701 13.8194 14.6225 13.778 14.6763 13.7306C14.7096 13.701 14.742 13.6709 14.7679 13.6453C14.8097 13.6048 14.8447 13.5683 14.872 13.5372C14.9373 13.4662 15.0016 13.3867 15.0612 13.3019C15.1315 13.2022 15.1953 13.0956 15.2495 12.9861C15.318 12.848 15.3735 12.7028 15.4136 12.5559C15.4383 12.4665 15.4553 12.3905 15.4687 12.3116C15.4744 12.2756 15.4784 12.2406 15.4835 12.1937C15.486 12.1671 15.488 12.1404 15.489 12.1182L15.4965 11.9954V12.0027L15.5 11.9603V6.17355L15.4925 5.98829ZM11.5814 9.23822L12.588 10.2378L11.7461 11.0727H11.7446C11.4017 10.7327 11.0975 10.4209 10.7516 10.0849C10.6849 10.033 10.6006 10.002 10.509 10.002C10.4149 10.002 10.3285 10.0351 10.2612 10.0888C9.88949 10.4505 9.45353 10.8803 9.09009 11.2498C9.04138 11.314 9.01228 11.3939 9.01228 11.4802C9.01228 11.5808 9.05166 11.6726 9.11619 11.7412V11.7417L10.0933 12.7113L9.25119 13.5466H9.24998L8.28174 12.584H8.28162C8.19691 12.5144 8.1103 12.4818 8.01608 12.4818C7.91377 12.4818 7.82038 12.5203 7.75062 12.584H7.74762L6.77702 13.5471H6.77549L5.93294 12.7118C6.2794 12.3683 6.58126 12.0772 6.92409 11.7303C6.97604 11.6647 7.00694 11.5829 7.00694 11.4935C7.00694 11.421 6.98651 11.3534 6.95109 11.2957L5.76111 10.1352H5.75772C5.67302 10.0661 5.5864 10.0335 5.49219 10.0335C5.39038 10.0335 5.29751 10.0716 5.22774 10.1342L4.25594 11.0993H4.25428C3.97362 10.821 3.69302 10.5423 3.41268 10.2635C3.74964 9.92896 4.05826 9.6324 4.39196 9.29443V9.29249C4.4563 9.22385 4.49574 9.13201 4.49574 9.03156C4.49574 8.95164 4.47098 8.87792 4.42885 8.8165L3.41217 7.80793L4.25466 6.97239H4.256L5.23253 7.94708C5.30153 8.0063 5.39166 8.04207 5.49028 8.04207C5.58653 8.04207 5.67481 8.008 5.74292 7.95128C6.10809 7.59161 6.54181 7.16775 6.90213 6.80337C6.95511 6.73775 6.98689 6.65462 6.98689 6.56434C6.98689 6.46346 6.94757 6.37193 6.88311 6.3031L5.90645 5.33406L6.74919 4.49871H6.7504L7.72004 5.4616H7.72279C7.79268 5.52472 7.88594 5.56349 7.98819 5.56349C8.08675 5.56349 8.17668 5.52767 8.24549 5.46901L9.22311 4.49871H9.22464L10.0669 5.33431C9.71555 5.68288 9.39328 5.99368 9.04591 6.34602C9.00321 6.40769 8.97813 6.48216 8.97813 6.56259C8.97813 6.64032 9.00174 6.71259 9.04215 6.77326C9.40432 7.14184 9.86492 7.54499 10.2356 7.90542H10.2427C10.3127 7.96879 10.4058 8.00731 10.5082 8.00731C10.6026 8.00731 10.689 7.97475 10.7738 7.90542H10.7778L11.7443 6.94673H11.7459L12.588 7.78227C12.2453 8.12199 11.9329 8.42571 11.593 8.76813C11.5383 8.83425 11.5057 8.91864 11.5057 9.01036C11.5057 9.09549 11.5337 9.17417 11.5814 9.23822Z" fill="white"/>
</g>
</svg>
