<svg xmlns="http://www.w3.org/2000/svg" xmlns:xlink="http://www.w3.org/1999/xlink" width="216" height="60" viewBox="0 0 216 60">
    <defs>
        <path id="a" d="M0 .197h53.214v59.267H0z"/>
    </defs>
    <g fill="none" fill-rule="evenodd">
        <path fill="#00AD64" d="M121.818 38.524c-1.302 1.774-3.597 3.73-6.695 3.73-3.533 0-5.703-1.896-5.703-5.81v-17.07h-8.616v18.17c0 5.172 2.338 9.458 7.014 11.207 1.463.547 3.19.782 5.107.65 4.794-.326 7.59-2.767 9.884-5.397v4.734h7.624V19.374h-8.615v19.15zM202.28 24.73v-5.356h-7.626v29.364h8.616v-17.25c1.799-3.488 6.322-5.261 11.032-4.467v-8.258c-5.292-.327-9.833 2.867-12.022 5.966M139.679 16.5v2.874h-5.146v6.402h5.146v22.962h8.553V25.776h9.114v-6.402h-9.114v-2.875c0-3.67 2.542-4.649 5.33-4.649 1.924 0 3.844.49 5.147 1.223V6.622c-1.921-.735-4.588-1.224-7.314-1.224-5.641 0-11.716 2.23-11.716 11.101"/>
        <g transform="translate(0 .34)">
            <mask id="b" fill="#fff">
                <use xlink:href="#a"/>
            </mask>
            <path fill="#00AD64" d="M39.265 30.609l3.57 3.607-2.986 3.014h-.005c-1.215-1.225-2.294-2.35-3.523-3.564a1.383 1.383 0 0 0-.86-.299c-.335 0-.641.118-.88.314a286.367 286.367 0 0 0-4.154 4.19 1.393 1.393 0 0 0 .092 1.773l3.467 3.5L31 46.161h-.005c-1.186-1.197-2.24-2.288-3.435-3.476a1.385 1.385 0 0 0-1.884 0h-.011l-3.443 3.478h-.004l-2.99-3.017c1.229-1.24 2.299-2.29 3.515-3.542.185-.235.295-.532.295-.853 0-.262-.072-.506-.199-.716-1.301-1.343-2.89-2.874-4.221-4.187h-.013a1.386 1.386 0 0 0-1.88-.003l-3.447 3.483h-.006l-2.986-3.017c1.195-1.207 2.29-2.28 3.474-3.499v-.008a1.38 1.38 0 0 0 .131-1.716l-3.607-3.64 2.99-3.017h.005c1.198 1.21 2.24 2.337 3.464 3.519a1.385 1.385 0 0 0 1.81.014c1.296-1.298 2.834-2.828 4.113-4.142a1.388 1.388 0 0 0-.068-1.806l-3.465-3.498 2.99-3.014h.005c1.186 1.197 2.247 2.283 3.44 3.474h.009a1.389 1.389 0 0 0 1.855.026l3.468-3.5h.006l2.987 3.015c-1.246 1.259-2.39 2.38-3.622 3.652a1.386 1.386 0 0 0-.013 1.542c1.284 1.33 2.918 2.786 4.234 4.086h.026c.247.23.577.368.942.368.362 0 .693-.138.941-.368h.014l3.43-3.46h.005l2.986 3.016c-1.214 1.225-2.322 2.323-3.53 3.558a1.388 1.388 0 0 0-.04 1.696m13.887-12.255a6.59 6.59 0 0 0-.117-.753 8.63 8.63 0 0 0-.243-.911 8.576 8.576 0 0 0-.408-1.04 8.832 8.832 0 0 0-1.093-1.756 9.241 9.241 0 0 0-.639-.708 8.874 8.874 0 0 0-.636-.584 8.565 8.565 0 0 0-.277-.209l-.048-.036a7.419 7.419 0 0 0-.276-.184l-.418-.28L30.898 1.345l-.361-.184a10.17 10.17 0 0 0-.473-.235 6.754 6.754 0 0 0-.747-.293l-.052-.016c-.105-.032-.2-.062-.337-.1l-.05-.013a8.876 8.876 0 0 0-1.33-.258 8.863 8.863 0 0 0-3.207.253 8.31 8.31 0 0 0-.814.265c-.12.045-.235.094-.345.145l-.048.025c-.074.031-.155.069-.277.13l-.484.25-18.181 10.6-.352.23c-.122.08-.245.162-.338.23a7.18 7.18 0 0 0-.873.743 8.8 8.8 0 0 0-1.008 1.178A8.847 8.847 0 0 0 .092 18.09a6.52 6.52 0 0 0-.037.352l-.002.023c-.004.05-.01.105-.014.173l-.04.675.01 21.17.016.32c.01.16.019.318.033.48l.005.04A7.114 7.114 0 0 0 .258 42.4l.022.094a8.737 8.737 0 0 0 .456 1.31c.207.473.455.927.741 1.356a9.059 9.059 0 0 0 1.725 1.904c.072.059.16.125.281.212l.092.065c.054.036.115.08.18.12l.452.303 18.301 10.65.08.046c.15.078.3.153.454.23l.057.026c.097.043.217.098.342.148.178.075.383.146.627.217.166.054.307.093.449.125.147.039.295.068.47.097l.462.08.188.024c.143.013.288.022.431.03l.621.027.288-.018c.161-.007.32-.016.486-.026l.08-.007c.123-.013.265-.027.408-.05a8.12 8.12 0 0 0 .884-.19c.358-.099.604-.177.83-.267.109-.04.233-.09.368-.154l.777-.386 18.232-10.629.229-.148c.15-.1.3-.2.456-.311.188-.136.375-.285.563-.456.12-.107.235-.216.326-.309.149-.145.273-.277.37-.39a8.583 8.583 0 0 0 1.34-1.988c.242-.5.439-1.022.58-1.553.089-.323.15-.597.196-.882.022-.13.035-.256.053-.426.01-.096.015-.192.02-.272l.027-.444v.027l.012-.153V19.546l-.027-.67a13.528 13.528 0 0 0-.035-.522" mask="url(#b)"/>
        </g>
        <path fill="#00AD64" d="M27.494 25.212h-.007a1.386 1.386 0 0 0-1.85-.03 237.232 237.232 0 0 0-4.119 4.156 1.384 1.384 0 0 0-.282.84c0 .317.105.61.284.843 1.28 1.316 2.866 2.801 4.17 4.094h.004a1.385 1.385 0 0 0 1.696.146c1.416-1.354 3.013-3.003 4.368-4.416a1.384 1.384 0 0 0-.117-1.562c-1.267-1.313-2.85-2.787-4.147-4.071M96.97 19.289h-9.229c-.247 8.17-4.749 12.617-11.245 12.524l.01-25.247-8.693 2.958-.02 39.18h8.696l.004-11.557c2.172-.022 4.3-.255 6.016-.64l5.475 12.196h9.648L90.09 33.078c3.651-2.484 6.693-8.32 6.88-13.79M178.643 41.154c-1.984 1.713-4.276 2.386-6.694 2.386-2.602 0-4.65-1.408-4.65-3.61 0-2.999 3.1-4.038 6.263-4.038 1.794 0 3.778.366 5.081.673v4.589zm8.614.128v-9.488c0-9.667-5.7-13.276-14.626-13.276-4.175 0-8.418 1.194-10.86 2.06v6.228c2.693-1.008 6.097-1.943 9.868-1.943 4.648 0 7.004 2.771 7.004 5.707v1.224c-2.108-.49-4.71-.796-7.066-.796-5.95 0-12.778 2.142-12.778 9.606 0 5.81 4.532 8.993 10.112 8.993 4.4 0 7.647-1.706 10.56-3.971.058.151.264.538.32.624 1.27 2.026 3.5 3.04 6.414 3.04 1.674 0 3.409-.366 4.772-.856v-5.438a5.166 5.166 0 0 1-1.61.245c-1.118 0-2.11-.429-2.11-1.959z"/>
    </g>
</svg>
